# xmcd CD database file
#
# Track frame offsets:
#	182
#	20612
#	41725
#	56225
#	75365
#	93515
#	114360
#	138857
#	161680
#	177917
#	198887
#	221565
#
# Disc length: 3216 seconds
#
# Revision: 0
# Processed by: cddbd v1.5PL3 Copyright (c) Steve Scherf et al.
# Submitted via: CDex 1.51
#
DISCID=9d0c8e0c
DTITLE=East Of Java - The Imp And The Angel
DYEAR=1900
DGENRE=New Age
TTITLE0=I Fade Away
TTITLE1=Life In A Dead End Town
TTITLE2=I Fall Down
TTITLE3=Changes
TTITLE4=The Moon Inside the Sailor's Eye
TTITLE5=The Lovers
TTITLE6=Drowned
TTITLE7=The Flame
TTITLE8=Inside Me
TTITLE9=Perfect
TTITLE10=Cold December Moon
TTITLE11=The Sky Breaks The Day
EXTD=
EXTT0=
EXTT1=
EXTT2=
EXTT3=
EXTT4=
EXTT5=
EXTT6=
EXTT7=
EXTT8=
EXTT9=
EXTT10=
EXTT11=
PLAYORDER=
